<svg width="80" height="80" viewBox="0 0 80 80" fill="none" xmlns="http://www.w3.org/2000/svg">
<path d="M16.3014 16.2533C16.4022 15.447 16.794 14.7053 17.4033 14.1675C18.0125 13.6298 18.7972 13.3332 19.6098 13.3333H60.3898C61.2024 13.3332 61.987 13.6298 62.5963 14.1675C63.2055 14.7053 63.5974 15.447 63.6981 16.2533L69.5314 62.92C69.5901 63.389 69.5482 63.8652 69.4088 64.3168C69.2693 64.7685 69.0354 65.1853 68.7225 65.5397C68.4096 65.894 68.0249 66.1777 67.594 66.372C67.1631 66.5663 66.6958 66.6668 66.2231 66.6667H13.7764C13.3037 66.6668 12.8364 66.5663 12.4055 66.372C11.9746 66.1777 11.5899 65.894 11.2771 65.5397C10.9642 65.1853 10.7303 64.7685 10.5908 64.3168C10.4513 63.8652 10.4095 63.389 10.4681 62.92L16.3014 16.2533Z" stroke="black" stroke-width="2" stroke-linejoin="round"/>
<path d="M25 30C25 30 28.3333 36.6667 40 36.6667C51.6667 36.6667 55 30 55 30" stroke="black" stroke-width="2" stroke-linecap="round" stroke-linejoin="round"/>
</svg>
