<svg width="80" height="80" viewBox="0 0 80 80" fill="none" xmlns="http://www.w3.org/2000/svg">
<path d="M70 33.125H66.8031C66.307 26.3555 63.2678 20.0244 58.2959 15.4035C53.324 10.7826 46.7877 8.2142 40 8.2142C33.2123 8.2142 26.676 10.7826 21.7041 15.4035C16.7322 20.0244 13.693 26.3555 13.1969 33.125H10C9.50272 33.125 9.02581 33.3225 8.67417 33.6742C8.32254 34.0258 8.125 34.5027 8.125 35C8.13615 40.8953 9.77641 46.6728 12.8646 51.6944C15.9528 56.7161 20.3689 60.7865 25.625 63.4562V65C25.625 66.1603 26.0859 67.2731 26.9064 68.0936C27.7269 68.9141 28.8397 69.375 30 69.375H50C51.1603 69.375 52.2731 68.9141 53.0936 68.0936C53.9141 67.2731 54.375 66.1603 54.375 65V63.4562C59.6311 60.7865 64.0472 56.7161 67.1354 51.6944C70.2236 46.6728 71.8638 40.8953 71.875 35C71.875 34.5027 71.6775 34.0258 71.3258 33.6742C70.9742 33.3225 70.4973 33.125 70 33.125ZM54.45 16.9656C55.3574 17.6921 56.2088 18.4861 56.9969 19.3406C53.5165 20.4241 50.2932 22.2051 47.5236 24.575C44.754 26.9449 42.4961 29.854 40.8875 33.125H30.4187C31.8955 28.4218 34.8319 24.3112 38.8023 21.3894C42.7726 18.4676 47.5704 16.8863 52.5 16.875C53.15 16.875 53.8031 16.9094 54.45 16.9656ZM59.4688 22.5437C61.5129 25.723 62.7408 29.3575 63.0438 33.125H45.15C46.7178 30.5015 48.7908 28.2154 51.2487 26.399C53.7066 24.5827 56.5006 23.2723 59.4688 22.5437ZM40 11.875C42.8645 11.8705 45.7048 12.4004 48.375 13.4375C43.2173 14.2517 38.4068 16.5452 34.5272 20.0399C30.6475 23.5346 27.8655 28.0801 26.5187 33.125H16.9562C17.4335 27.3388 20.0671 21.9432 24.3352 18.0073C28.6032 14.0715 34.1942 11.8828 40 11.875ZM51.7188 60.575C51.3921 60.7247 51.1154 60.9651 50.9215 61.2676C50.7276 61.5701 50.6247 61.9219 50.625 62.2812V65C50.625 65.1658 50.5592 65.3247 50.4419 65.4419C50.3247 65.5591 50.1658 65.625 50 65.625H30C29.8342 65.625 29.6753 65.5591 29.5581 65.4419C29.4408 65.3247 29.375 65.1658 29.375 65V62.2812C29.3753 61.9219 29.2724 61.5701 29.0785 61.2676C28.8846 60.9651 28.6079 60.7247 28.2812 60.575C23.6816 58.4538 19.7373 55.1343 16.8618 50.9646C13.9863 46.7948 12.2854 41.9282 11.9375 36.875H68.0625C67.7146 41.9282 66.0137 46.7948 63.1382 50.9646C60.2627 55.1343 56.3184 58.4538 51.7188 60.575Z" fill="black"/>
</svg>
